<?xml version="1.0" encoding="utf-8"?>
<svg version="1.1" xmlns:xlink="http://www.w3.org/1999/xlink" width="12px" height="12px" xmlns="http://www.w3.org/2000/svg">
  <g transform="matrix(1 0 0 1 -470 -208 )">
    <path d="M 5.440000000000055 10.79999999165534  C 5.440000000000055 10.79999999165534  5.440000000000055 8.759513255538536  5.439995290442198 6.560000003576306  C 3.2404838441758557 6.560000003576306  1.2000000119209062 6.560000003576306  1.2000000119209062 6.560000003576306  C 0.8907205520156367 6.560000003576306  0.6400000119208471 6.309279463481516  0.6400000119208471 6.0000000035763605  C 0.6400000119208471 5.690720543671091  0.8907205520156367 5.440000003576301  1.2000000119209062 5.440000003576301  C 1.2000000119209062 5.440000003576301  3.2404838353564855 5.440000003576301  5.440000000000055 5.440000003545265  C 5.440000000000055 3.240486760434351  5.440000000000055 1.2000000154972668  5.440000000000055 1.2000000154972668  C 5.440000000000055 0.8907205555919973  5.690720540094844 0.6400000154972076  6 0.6400000154972076  C 6.3092794599052695 0.6400000154972076  6.560000000000059 0.8907205555919973  6.560000000000059 1.2000000154972668  C 6.560000000000059 1.2000000154972668  6.560000000000059 3.240486751614071  6.560004709557802 5.440000003576301  C 8.75951615582403 5.440000003576301  10.79999998807898 5.440000003576301  10.79999998807898 5.440000003576301  C 11.10927944798425 5.440000003576301  11.35999998807904 5.690720543671091  11.35999998807904 6.0000000035763605  C 11.35999998807904 6.309279463481516  11.10927944798425 6.560000003576306  10.79999998807898 6.560000003576306  C 10.79999998807898 6.560000003576306  8.759516164643514 6.560000003576306  6.560000000000059 6.5600000036073425  C 6.560000000000059 8.759513246718257  6.560000000000059 10.79999999165534  6.560000000000059 10.79999999165534  C 6.560000000000059 11.10927945156061  6.3092794599052695 11.3599999916554  6 11.3599999916554  C 5.690720540094844 11.3599999916554  5.440000000000055 11.10927945156061  5.440000000000055 10.79999999165534  Z " fill-rule="nonzero" fill="#8c8c8c" stroke="none" transform="matrix(1 0 0 1 470 208 )" />
  </g>
</svg>