<svg t="1699956366947" class="icon" viewBox="0 0 1024 1024" version="1.1" xmlns="http://www.w3.org/2000/svg" p-id="10050" width="200" height="200"><path d="M802.88 896H221.632c-24.832 0-48.64-10.24-66.176-28.608A99.84 99.84 0 0 1 128 798.272V225.728c0-25.856 9.856-50.752 27.456-69.056A91.712 91.712 0 0 1 221.632 128h516.672c24.832 0 48.64 10.24 66.24 28.608 17.536 18.304 27.392 43.2 27.392 69.12v469.824a30.72 30.72 0 0 1-6.208 20.48c-17.664 23.296-25.92 44.992-25.92 65.472 0 20.48 8.32 42.048 25.92 65.408a31.36 31.36 0 0 1 3.328 32 28.992 28.992 0 0 1-26.176 17.088z m-29.056-229.056V225.664a36.288 36.288 0 0 0-35.52-37.056H221.632a36.288 36.288 0 0 0-35.52 37.12v454.72c15.936-8.896 33.664-13.504 51.648-13.44h536.064z m-536.064 168.448h514.304a148.224 148.224 0 0 1-10.368-53.888c0-18.24 3.52-36.16 10.368-53.952H237.76c-28.48 0-51.648 24.128-51.648 53.952 0 29.76 23.168 53.888 51.648 53.888z m80.768-542.336h322.88c17.856 0 32.32 15.104 32.32 33.664 0 18.56-14.464 33.728-32.32 33.728H318.528a33.024 33.024 0 0 1-32.32-33.728c0-18.56 14.464-33.664 32.32-33.664z m0 202.112h322.88c17.856 0 32.32 15.04 32.32 33.664 0 18.56-14.464 33.664-32.32 33.664H318.528a33.024 33.024 0 0 1-32.32-33.664c0-18.56 14.464-33.664 32.32-33.664z" fill="#8a8a8a" p-id="10051"></path></svg>