<?xml version="1.0" encoding="utf-8"?>
<svg version="1.1" xmlns:xlink="http://www.w3.org/1999/xlink" width="12px" height="10px" xmlns="http://www.w3.org/2000/svg">
  <g transform="matrix(1 0 0 1 -495 -169 )">
    <path d="M 4.77786666666691 8.521933326180829  C 4.77786666666691 8.245933326180875  4.975991556106123 8.021933326180829  5.220109723450946 8.021933326180829  C 5.220109723450946 8.021933326180829  11.002290276549502 8.021933326180829  11.002290276549502 8.021933326180829  C 11.246408443894325 8.021933326180829  11.444533333333538 8.245933326180875  11.444533333333538 8.521933326180829  C 11.444533333333538 8.797933326180782  11.246408443894325 9.021933326180829  11.002290276549502 9.021933326180829  C 11.002290276549502 9.021933326180829  5.220109723450946 9.021933326180829  5.220109723450946 9.021933326180829  C 4.975991556106123 9.021933326180829  4.77786666666691 8.797933326180782  4.77786666666691 8.521933326180829  Z M 4.77786666666691 4.998399999999947  C 4.77786666666691 4.722399999999993  4.975991556106123 4.498399999999947  5.220109723450946 4.498399999999947  C 5.220109723450946 4.498399999999947  11.002290276549502 4.498399999999947  11.002290276549502 4.498399999999947  C 11.246408443894325 4.498399999999947  11.444533333333538 4.722399999999993  11.444533333333538 4.998399999999947  C 11.444533333333538 5.2743999999999005  11.246408443894325 5.498399999999947  11.002290276549502 5.498399999999947  C 11.002290276549502 5.498399999999947  5.220109723450946 5.498399999999947  5.220109723450946 5.498399999999947  C 4.975991556106123 5.498399999999947  4.77786666666691 5.2743999999999005  4.77786666666691 4.998399999999947  Z M 5.220109723450946 0.97773334048577  C 5.220109723450946 0.97773334048577  11.002290276549502 0.97773334048577  11.002290276549502 0.97773334048577  C 11.246408443894325 0.97773334048577  11.444533333333538 1.2017333404858164  11.444533333333538 1.47773334048577  C 11.444533333333538 1.7537333404857236  11.246408443894325 1.97773334048577  11.002290276549502 1.97773334048577  C 11.002290276549502 1.97773334048577  5.220109723450946 1.97773334048577  5.220109723450946 1.97773334048577  C 4.975991556106123 1.97773334048577  4.77786666666691 1.7537333404857236  4.77786666666691 1.47773334048577  C 4.77786666666691 1.2017333404858164  4.975991556106123 0.97773334048577  5.220109723450946 0.97773334048577  Z M 1.781348709210306 2.3288502036411955  C 1.781348709210306 2.3288502036411955  0.45971280827586725 1.0236997525258857  0.45971280827586725 1.0236997525258857  C 0.38079868365548464 0.9457722154392059  0.37999889643595 0.8186269270175899  0.45792643352251616 0.7397128023972073  C 0.49565621116767034 0.7015053537045333  0.5471163059594346 0.6800000190734181  0.6008130959635309 0.6800000190734181  C 0.6008130959635309 0.6800000190734181  3.39918692898857 0.6800000190734181  3.39918692898857 0.6800000190734181  C 3.510092925674826 0.6800000190734181  3.6000000000000227 0.769907093398615  3.6000000000000227 0.880813090084871  C 3.6000000000000227 0.9336288762654021  3.579192631880801 0.9843183734532204  3.542084899008387 1.0219019261182893  C 3.542084899008387 1.0219019261182893  2.2546791387228495 2.3258538262953152  2.2546791387228495 2.3258538262953152  C 2.1248104512017107 2.457387775668167  1.9129017446736043 2.4587377371269667  1.781348709210306 2.3288502036411955  Z M 3.6000000000000227 9.184581174069763  C 3.6000000000000227 9.295487170756019  3.510092925674826 9.385394245081216  3.39918692898857 9.385394245081216  C 3.39918692898857 9.385394245081216  0.6008130959635309 9.385394245081216  0.6008130959635309 9.385394245081216  C 0.5471163059594346 9.385394245081216  0.49565621116767034 9.3638889104501  0.45792643352251616 9.325681461757426  C 0.37999889643595 9.246767337137044  0.38079868365548464 9.119622048715428  0.45971280827586725 9.041694511628748  C 0.45971280827586725 9.041694511628748  1.781348709210306 7.736544060513438  1.781367795300639 7.736525214548692  C 1.9129017446736043 7.606656527027667  2.1248104512017107 7.608006488486467  2.2546791387228495 7.7395404378593184  C 2.2546791387228495 7.7395404378593184  3.542084899008387 9.043492338036344  3.542084899008387 9.043492338036344  C 3.579192631880801 9.081075890701413  3.6000000000000227 9.131765387889232  3.6000000000000227 9.184581174069763  Z " fill-rule="nonzero" fill="#8c8c8c" stroke="none" transform="matrix(1 0 0 1 495 169 )" />
  </g>
</svg>