<svg viewBox="0 0 1429.86 1290.92" xmlns:xlink="http://www.w3.org/1999/xlink" xmlns="http://www.w3.org/2000/svg" id="_图层_2">
  <defs>
    <style>
      .cls-1 {
        fill: #f5f7fa;
      }

      .cls-1, .cls-2, .cls-3, .cls-4, .cls-5, .cls-6, .cls-7, .cls-8, .cls-9, .cls-10, .cls-11 {
        stroke-width: 0px;
      }

      .cls-2 {
        fill: url(#_未命名的渐变_10);
      }

      .cls-3 {
        fill: url(#_未命名的渐变_42-2);
      }

      .cls-4 {
        fill: url(#_未命名的渐变_42);
      }

      .cls-5 {
        fill: url(#_未命名的渐变_15-2);
      }

      .cls-6 {
        fill: url(#_未命名的渐变_15);
      }

      .cls-7 {
        fill: #e9f0f4;
      }

      .cls-8 {
        fill: #e1eaef;
      }

      .cls-9 {
        fill: url(#_未命名的渐变_42-3);
      }

      .cls-10 {
        fill: #ced6dd;
        opacity: .3;
      }

      .cls-11 {
        fill: url(#_未命名的渐变_14);
      }
    </style>
    <linearGradient gradientUnits="userSpaceOnUse" y2="995.69" x2="714.93" y1="1290.92" x1="714.93" id="_未命名的渐变_10">
      <stop stop-opacity=".5" stop-color="#f7fbff" offset="0"></stop>
      <stop stop-color="#ecf5ff" offset="1"></stop>
    </linearGradient>
    <linearGradient gradientUnits="userSpaceOnUse" y2="66.57" x2="1007.27" y1="66.57" x1="1227.25" id="_未命名的渐变_15">
      <stop stop-color="#f7fbff" offset="0"></stop>
      <stop stop-color="#ecf5ff" offset="1"></stop>
    </linearGradient>
    <linearGradient xlink:href="#_未命名的渐变_15" y2="283.66" x2="191.03" y1="283.66" x1="344.06" id="_未命名的渐变_15-2"></linearGradient>
    <linearGradient gradientUnits="userSpaceOnUse" y2="730.51" x2="983.32" y1="730.51" x1="365.33" id="_未命名的渐变_14">
      <stop stop-color="#dcedff" offset="0"></stop>
      <stop stop-color="#4095e6" offset="1"></stop>
    </linearGradient>
    <linearGradient gradientUnits="userSpaceOnUse" y2="741.41" x2="571.56" y1="677.73" x1="571.56" id="_未命名的渐变_42">
      <stop stop-color="#fafafd" offset="0"></stop>
      <stop stop-color="#bedcfa" offset="1"></stop>
    </linearGradient>
    <linearGradient xlink:href="#_未命名的渐变_42" x2="672.29" x1="672.29" id="_未命名的渐变_42-2"></linearGradient>
    <linearGradient xlink:href="#_未命名的渐变_42" x2="773.01" x1="773.01" id="_未命名的渐变_42-3"></linearGradient>
  </defs>
  <g id="_图层_1-2">
    <g>
      <g>
        <ellipse ry="147.62" rx="714.93" cy="1143.31" cx="714.93" class="cls-2"></ellipse>
        <g>
          <path d="m1162.16,989.3h13.94c1.92,0,3.48,1.56,3.48,3.48h0v62.72c0,3.85-3.12,6.97-6.97,6.97h-6.97c-3.85,0-6.97-3.12-6.97-6.97h0v-62.72c0-1.92,1.56-3.48,3.48-3.48h0Z" class="cls-7"></path>
          <path d="m1169.13,846.43v174.23l-69.69-31.36,69.69-142.87Z" class="cls-8"></path>
          <path d="m1169.13,846.43v174.23l69.69-31.36-69.69-142.87Z" class="cls-1"></path>
        </g>
        <g>
          <path d="m1263.74,988.5h18.5c2.55,0,4.63,2.07,4.63,4.63h0v83.25c0,5.11-4.14,9.25-9.25,9.25h-9.25c-5.11,0-9.25-4.14-9.25-9.25h0v-83.25c0-2.55,2.07-4.63,4.63-4.63h0Z" class="cls-7"></path>
          <path d="m1272.99,798.87v231.26l-92.5-41.63,92.5-189.63Z" class="cls-8"></path>
          <path d="m1272.99,798.87v231.26l92.5-41.63-92.5-189.63Z" class="cls-1"></path>
        </g>
        <g>
          <path d="m244.89,976.92h18.5c2.55,0,4.63,2.07,4.63,4.63h0v83.25c0,5.11-4.14,9.25-9.25,9.25h-9.25c-5.11,0-9.25-4.14-9.25-9.25h0v-83.25c0-2.55,2.07-4.63,4.63-4.63h0Z" class="cls-7"></path>
          <path d="m254.14,787.29v231.26l-92.5-41.63,92.5-189.63Z" class="cls-8"></path>
          <path d="m254.14,787.29v231.26l92.5-41.63-92.5-189.63Z" class="cls-1"></path>
        </g>
        <path d="m1204.13,65.71c-.08-.03-.14-.11-.14-.19.03-36.65-28.46-65.52-63.58-65.52-20.69,0-39.01,9.91-50.64,25.19-.05.07-.14.1-.22.07-4.03-1.34-8.33-2.1-12.81-2.1-22.38,0-40.52,18.14-40.52,40.52,0,.17.02.34.03.52-16.9,2.83-29.68,17.82-28.94,35.68.78,18.91,17.53,33.27,36.45,33.27h147.36c17.94,0,33.97-12.99,35.93-30.82,1.83-16.77-8.29-31.42-22.91-36.62Z" class="cls-6"></path>
        <path d="m327.98,283.05c-.06-.02-.09-.07-.09-.13.02-25.49-19.8-45.58-44.23-45.58-14.39,0-27.14,6.89-35.23,17.52-.04.05-.1.07-.16.05-2.8-.94-5.79-1.46-8.91-1.46-15.57,0-28.19,12.62-28.19,28.19,0,.12.02.24.02.36-11.76,1.97-20.64,12.39-20.13,24.82.54,13.15,12.19,23.14,25.36,23.14h102.51c12.48,0,23.63-9.04,24.99-21.44,1.28-11.67-5.77-21.86-15.93-25.47Z" class="cls-5"></path>
        <path d="m396.54,1134.63c0,9.55,85.58,17.36,191.63,17.36s191.63-7.81,191.63-17.36-85.6-17.37-191.63-17.37c-106.05-.07-191.63,7.38-191.63,17.36" class="cls-10"></path>
        <path d="m905.96,1134.63c0,9.55,33.61,17.36,75.26,17.36s75.26-7.81,75.26-17.36-33.61-17.37-75.26-17.37c-41.65-.07-75.26,7.38-75.26,17.36" class="cls-10"></path>
      </g>
      <g>
        <path d="m970.35,979.73c-1.26-1.42-2.6-2.76-4.01-4.03l-63.69-63.69c114.44-126.54,104.64-321.89-21.9-436.34-56.78-51.36-130.61-79.8-207.17-79.81-170.62.37-308.62,138.99-308.25,309.6.37,170.61,138.99,308.62,309.6,308.25,51.34-.11,101.83-13.02,146.93-37.55l71.77,71.77c18.84,21.18,51.28,23.09,72.46,4.26,21.18-18.84,23.09-51.28,4.25-72.46h0Zm-296.77-61.07c-118.12,0-213.87-95.75-213.87-213.87s95.75-213.87,213.87-213.87,213.87,95.75,213.87,213.87c-.26,118.01-95.86,213.61-213.87,213.87Z" class="cls-11"></path>
        <g>
          <circle r="31.84" cy="709.57" cx="571.56" class="cls-4"></circle>
          <circle r="31.84" cy="709.57" cx="672.29" class="cls-3"></circle>
          <circle r="31.84" cy="709.57" cx="773.01" class="cls-9"></circle>
        </g>
      </g>
    </g>
  </g>
</svg>